solid Mesh
  facet normal 0 0 -1
    outer loop
      vertex -0.813399 -0.292076 0
      vertex -0.813399 -1.79208 0
      vertex -3.5134 -1.79208 0
    endloop
  endfacet
  facet normal 0 0 -1
    outer loop
      vertex 2.0866 -0.0420761 0
      vertex 2.8866 -0.0420761 0
      vertex 2.8866 -1.04208 0
    endloop
  endfacet
  facet normal 0 0 -1
    outer loop
      vertex 0.321724 -0.861734 0
      vertex 1.02172 -0.861734 0
      vertex 1.6866 -1.79208 0
    endloop
  endfacet
  facet normal 0 0 -1
    outer loop
      vertex 1.6866 -1.79208 0
      vertex 1.02172 -0.861734 0
      vertex 1.6866 -1.04208 0
    endloop
  endfacet
  facet normal 0 0 -1
    outer loop
      vertex 1.6866 -1.04208 0
      vertex 1.0866 -0.361734 0
      vertex 2.8866 -1.04208 0
    endloop
  endfacet
  facet normal 0 0 -1
    outer loop
      vertex 1.0866 -0.361734 0
      vertex 1.7866 -0.361734 0
      vertex 2.8866 -1.04208 0
    endloop
  endfacet
  facet normal 0 0 -1
    outer loop
      vertex 2.8866 -1.04208 0
      vertex 1.7866 -0.361734 0
      vertex 2.0866 -0.0420761 0
    endloop
  endfacet
  facet normal 0 0 -1
    outer loop
      vertex 1.7866 -0.361734 0
      vertex 1.7866 0.138266 0
      vertex 2.0866 -0.0420761 0
    endloop
  endfacet
  facet normal 0 0 -1
    outer loop
      vertex 2.0866 -0.0420761 0
      vertex 1.7866 0.138266 0
      vertex 2.0866 1.70792 0
    endloop
  endfacet
  facet normal 0 0 -1
    outer loop
      vertex 1.6866 -1.04208 0
      vertex 1.02172 -0.861734 0
      vertex 1.0866 -0.361734 0
    endloop
  endfacet
  facet normal 0 0 -1
    outer loop
      vertex 1.02172 -0.861734 0
      vertex 1.02172 -0.361734 0
      vertex 1.0866 -0.361734 0
    endloop
  endfacet
  facet normal 0 0 -1
    outer loop
      vertex 1.0866 -0.361734 0
      vertex 1.02172 -0.361734 0
      vertex 1.0866 0.138266 0
    endloop
  endfacet
  facet normal 0 0 -1
    outer loop
      vertex -0.298458 0.343842 0
      vertex 0.201542 0.343842 0
      vertex 1.0866 0.138266 0
    endloop
  endfacet
  facet normal 0 0 -1
    outer loop
      vertex 0.201542 0.343842 0
      vertex 0.201542 0.507924 0
      vertex 1.0866 0.138266 0
    endloop
  endfacet
  facet normal 0 0 -1
    outer loop
      vertex 1.0866 0.138266 0
      vertex 0.201542 0.507924 0
      vertex 1 0.507924 0
    endloop
  endfacet
  facet normal 0 0 -1
    outer loop
      vertex 0.786601 1.00792 0
      vertex 0.786601 1.70792 0
      vertex 1 1.00792 0
    endloop
  endfacet
  facet normal 0 0 -1
    outer loop
      vertex 0.786601 1.70792 0
      vertex 2.0866 1.70792 0
      vertex 1 1.00792 0
    endloop
  endfacet
  facet normal 0 0 -1
    outer loop
      vertex 1 1.00792 0
      vertex 2.0866 1.70792 0
      vertex 1 0.507924 0
    endloop
  endfacet
  facet normal 0 0 -1
    outer loop
      vertex 2.0866 1.70792 0
      vertex 1.7866 0.138266 0
      vertex 1 0.507924 0
    endloop
  endfacet
  facet normal 0 0 -1
    outer loop
      vertex 1 0.507924 0
      vertex 1.7866 0.138266 0
      vertex 1.0866 0.138266 0
    endloop
  endfacet
  facet normal 0 0 -1
    outer loop
      vertex 1.0866 0.138266 0
      vertex 1.02172 -0.361734 0
      vertex -0.298458 0.343842 0
    endloop
  endfacet
  facet normal 0 0 -1
    outer loop
      vertex 1.02172 -0.361734 0
      vertex 0.321724 -0.361734 0
      vertex -0.298458 0.343842 0
    endloop
  endfacet
  facet normal 0 0 -1
    outer loop
      vertex -0.298458 0.343842 0
      vertex 0.321724 -0.361734 0
      vertex 0.321724 -0.861734 0
    endloop
  endfacet
  facet normal 0 0 -1
    outer loop
      vertex -0.298458 0.343842 0
      vertex -3.5134 1.70792 0
      vertex -0.298458 1.00792 0
    endloop
  endfacet
  facet normal 0 0 -1
    outer loop
      vertex -3.5134 1.70792 0
      vertex 0.286601 1.70792 0
      vertex -0.298458 1.00792 0
    endloop
  endfacet
  facet normal 0 0 -1
    outer loop
      vertex -0.298458 1.00792 0
      vertex 0.286601 1.70792 0
      vertex 0.286601 1.00792 0
    endloop
  endfacet
  facet normal 0 0 -1
    outer loop
      vertex -3.5134 -1.79208 0
      vertex -3.5134 1.70792 0
      vertex -0.813399 -0.292076 0
    endloop
  endfacet
  facet normal 0 0 -1
    outer loop
      vertex -3.5134 1.70792 0
      vertex -0.298458 0.343842 0
      vertex -0.813399 -0.292076 0
    endloop
  endfacet
  facet normal 0 0 -1
    outer loop
      vertex -0.813399 -0.292076 0
      vertex -0.298458 0.343842 0
      vertex -0.113399 -0.292076 0
    endloop
  endfacet
  facet normal 0 0 -1
    outer loop
      vertex -0.298458 0.343842 0
      vertex 0.321724 -0.861734 0
      vertex -0.113399 -0.292076 0
    endloop
  endfacet
  facet normal 0 0 -1
    outer loop
      vertex -0.113399 -0.292076 0
      vertex 0.321724 -0.861734 0
      vertex -0.113399 -1.79208 0
    endloop
  endfacet
  facet normal 0 0 -1
    outer loop
      vertex 0.321724 -0.861734 0
      vertex 1.6866 -1.79208 0
      vertex -0.113399 -1.79208 0
    endloop
  endfacet
  facet normal 0 0 1
    outer loop
      vertex 2.8866 -1.04208 0.05
      vertex 2.8866 -0.0420761 0.05
      vertex 2.0866 -0.0420761 0.05
    endloop
  endfacet
  facet normal 0 0 1
    outer loop
      vertex 1.6866 -1.04208 0.05
      vertex 2.8866 -1.04208 0.05
      vertex 1.7866 -0.361734 0.05
    endloop
  endfacet
  facet normal 0 0 1
    outer loop
      vertex 2.8866 -1.04208 0.05
      vertex 2.0866 -0.0420761 0.05
      vertex 1.7866 -0.361734 0.05
    endloop
  endfacet
  facet normal 0 0 1
    outer loop
      vertex 1.7866 -0.361734 0.05
      vertex 2.0866 -0.0420761 0.05
      vertex 1.7866 0.138266 0.05
    endloop
  endfacet
  facet normal 0 0 1
    outer loop
      vertex 2.0866 -0.0420761 0.05
      vertex 2.0866 1.70792 0.05
      vertex 1.7866 0.138266 0.05
    endloop
  endfacet
  facet normal 0 0 1
    outer loop
      vertex 0.286601 1.00792 0.05
      vertex 0.286601 1.70792 0.05
      vertex -0.298458 1.00792 0.05
    endloop
  endfacet
  facet normal 0 0 1
    outer loop
      vertex 0.286601 1.70792 0.05
      vertex -3.5134 1.70792 0.05
      vertex -0.298458 1.00792 0.05
    endloop
  endfacet
  facet normal 0 0 1
    outer loop
      vertex -3.5134 -1.79208 0.05
      vertex -0.813399 -1.79208 0.05
      vertex -3.5134 1.70792 0.05
    endloop
  endfacet
  facet normal 0 0 1
    outer loop
      vertex -0.813399 -1.79208 0.05
      vertex -0.813399 -0.292076 0.05
      vertex -3.5134 1.70792 0.05
    endloop
  endfacet
  facet normal 0 0 1
    outer loop
      vertex -3.5134 1.70792 0.05
      vertex -0.813399 -0.292076 0.05
      vertex -0.113399 -0.292076 0.05
    endloop
  endfacet
  facet normal 0 0 1
    outer loop
      vertex 1.0866 -0.361734 0.05
      vertex 1.0866 0.138266 0.05
      vertex 1.02172 -0.361734 0.05
    endloop
  endfacet
  facet normal 0 0 1
    outer loop
      vertex 1.0866 0.138266 0.05
      vertex 0.201542 0.343842 0.05
      vertex 1.02172 -0.361734 0.05
    endloop
  endfacet
  facet normal 0 0 1
    outer loop
      vertex 1.02172 -0.361734 0.05
      vertex 0.201542 0.343842 0.05
      vertex 0.321724 -0.361734 0.05
    endloop
  endfacet
  facet normal 0 0 1
    outer loop
      vertex 0.201542 0.343842 0.05
      vertex -0.298458 0.343842 0.05
      vertex 0.321724 -0.361734 0.05
    endloop
  endfacet
  facet normal 0 0 1
    outer loop
      vertex 0.786601 1.70792 0.05
      vertex 0.786601 1.00792 0.05
      vertex 2.0866 1.70792 0.05
    endloop
  endfacet
  facet normal 0 0 1
    outer loop
      vertex 0.786601 1.00792 0.05
      vertex 1 1.00792 0.05
      vertex 2.0866 1.70792 0.05
    endloop
  endfacet
  facet normal 0 0 1
    outer loop
      vertex 2.0866 1.70792 0.05
      vertex 1 1.00792 0.05
      vertex 1.7866 0.138266 0.05
    endloop
  endfacet
  facet normal 0 0 1
    outer loop
      vertex 1 1.00792 0.05
      vertex 1 0.507924 0.05
      vertex 1.7866 0.138266 0.05
    endloop
  endfacet
  facet normal 0 0 1
    outer loop
      vertex 1.7866 0.138266 0.05
      vertex 1 0.507924 0.05
      vertex 1.0866 0.138266 0.05
    endloop
  endfacet
  facet normal 0 0 1
    outer loop
      vertex 1 0.507924 0.05
      vertex 0.201542 0.507924 0.05
      vertex 1.0866 0.138266 0.05
    endloop
  endfacet
  facet normal 0 0 1
    outer loop
      vertex 1.0866 0.138266 0.05
      vertex 0.201542 0.507924 0.05
      vertex 0.201542 0.343842 0.05
    endloop
  endfacet
  facet normal 0 0 1
    outer loop
      vertex 1.7866 -0.361734 0.05
      vertex 1.0866 -0.361734 0.05
      vertex 1.6866 -1.04208 0.05
    endloop
  endfacet
  facet normal 0 0 1
    outer loop
      vertex 1.0866 -0.361734 0.05
      vertex 1.02172 -0.361734 0.05
      vertex 1.6866 -1.04208 0.05
    endloop
  endfacet
  facet normal 0 0 1
    outer loop
      vertex 1.6866 -1.04208 0.05
      vertex 1.02172 -0.361734 0.05
      vertex 1.6866 -1.79208 0.05
    endloop
  endfacet
  facet normal 0 0 1
    outer loop
      vertex 1.02172 -0.361734 0.05
      vertex 1.02172 -0.861734 0.05
      vertex 1.6866 -1.79208 0.05
    endloop
  endfacet
  facet normal 0 0 1
    outer loop
      vertex 1.6866 -1.79208 0.05
      vertex 1.02172 -0.861734 0.05
      vertex -0.113399 -1.79208 0.05
    endloop
  endfacet
  facet normal 0 0 1
    outer loop
      vertex 1.02172 -0.861734 0.05
      vertex 0.321724 -0.861734 0.05
      vertex -0.113399 -1.79208 0.05
    endloop
  endfacet
  facet normal 0 0 1
    outer loop
      vertex -0.113399 -1.79208 0.05
      vertex 0.321724 -0.861734 0.05
      vertex -0.113399 -0.292076 0.05
    endloop
  endfacet
  facet normal 0 0 1
    outer loop
      vertex 0.321724 -0.861734 0.05
      vertex 0.321724 -0.361734 0.05
      vertex -0.113399 -0.292076 0.05
    endloop
  endfacet
  facet normal 0 0 1
    outer loop
      vertex -0.113399 -0.292076 0.05
      vertex 0.321724 -0.361734 0.05
      vertex -3.5134 1.70792 0.05
    endloop
  endfacet
  facet normal 0 0 1
    outer loop
      vertex 0.321724 -0.361734 0.05
      vertex -0.298458 0.343842 0.05
      vertex -3.5134 1.70792 0.05
    endloop
  endfacet
  facet normal 0 0 1
    outer loop
      vertex -3.5134 1.70792 0.05
      vertex -0.298458 0.343842 0.05
      vertex -0.298458 1.00792 0.05
    endloop
  endfacet
  facet normal 0 1 0
    outer loop
      vertex 1.0866 -0.361734 0.05
      vertex 1.7866 -0.361734 0.05
      vertex 1.0866 -0.361734 0
    endloop
  endfacet
  facet normal 0 1 0
    outer loop
      vertex 1.7866 -0.361734 0.05
      vertex 1.7866 -0.361734 0
      vertex 1.0866 -0.361734 0
    endloop
  endfacet
  facet normal 0 -1 0
    outer loop
      vertex -0.113399 -0.292076 0.05
      vertex -0.813399 -0.292076 0.05
      vertex -0.113399 -0.292076 0
    endloop
  endfacet
  facet normal 0 -1 0
    outer loop
      vertex -0.813399 -0.292076 0.05
      vertex -0.813399 -0.292076 0
      vertex -0.113399 -0.292076 0
    endloop
  endfacet
  facet normal 0 1 0
    outer loop
      vertex 0.321724 -0.861734 0.05
      vertex 1.02172 -0.861734 0.05
      vertex 0.321724 -0.861734 0
    endloop
  endfacet
  facet normal 0 1 0
    outer loop
      vertex 1.02172 -0.861734 0.05
      vertex 1.02172 -0.861734 0
      vertex 0.321724 -0.861734 0
    endloop
  endfacet
  facet normal 1 0 0
    outer loop
      vertex -0.813399 -0.292076 0.05
      vertex -0.813399 -1.79208 0.05
      vertex -0.813399 -0.292076 0
    endloop
  endfacet
  facet normal 1 0 0
    outer loop
      vertex -0.813399 -1.79208 0.05
      vertex -0.813399 -1.79208 0
      vertex -0.813399 -0.292076 0
    endloop
  endfacet
  facet normal 0 -1 0
    outer loop
      vertex -0.813399 -1.79208 0.05
      vertex -3.5134 -1.79208 0.05
      vertex -0.813399 -1.79208 0
    endloop
  endfacet
  facet normal 0 -1 0
    outer loop
      vertex -3.5134 -1.79208 0.05
      vertex -3.5134 -1.79208 0
      vertex -0.813399 -1.79208 0
    endloop
  endfacet
  facet normal -1 0 0
    outer loop
      vertex -3.5134 -1.79208 0.05
      vertex -3.5134 1.70792 0.05
      vertex -3.5134 -1.79208 0
    endloop
  endfacet
  facet normal -1 0 0
    outer loop
      vertex -3.5134 1.70792 0.05
      vertex -3.5134 1.70792 0
      vertex -3.5134 -1.79208 0
    endloop
  endfacet
  facet normal 0 1 0
    outer loop
      vertex -3.5134 1.70792 0.05
      vertex 0.286601 1.70792 0.05
      vertex -3.5134 1.70792 0
    endloop
  endfacet
  facet normal 0 1 0
    outer loop
      vertex 0.286601 1.70792 0.05
      vertex 0.286601 1.70792 0
      vertex -3.5134 1.70792 0
    endloop
  endfacet
  facet normal 1 0 0
    outer loop
      vertex 0.286601 1.70792 0.05
      vertex 0.286601 1.00792 0.05
      vertex 0.286601 1.70792 0
    endloop
  endfacet
  facet normal 1 0 0
    outer loop
      vertex 0.286601 1.00792 0.05
      vertex 0.286601 1.00792 0
      vertex 0.286601 1.70792 0
    endloop
  endfacet
  facet normal 0 -1 0
    outer loop
      vertex 0.286601 1.00792 0.05
      vertex -0.298458 1.00792 0.05
      vertex 0.286601 1.00792 0
    endloop
  endfacet
  facet normal 0 -1 0
    outer loop
      vertex -0.298458 1.00792 0.05
      vertex -0.298458 1.00792 0
      vertex 0.286601 1.00792 0
    endloop
  endfacet
  facet normal 1 0 0
    outer loop
      vertex -0.298458 1.00792 0.05
      vertex -0.298458 0.343842 0.05
      vertex -0.298458 1.00792 0
    endloop
  endfacet
  facet normal 1 0 0
    outer loop
      vertex -0.298458 0.343842 0.05
      vertex -0.298458 0.343842 0
      vertex -0.298458 1.00792 0
    endloop
  endfacet
  facet normal 0 1 0
    outer loop
      vertex -0.298458 0.343842 0.05
      vertex 0.201542 0.343842 0.05
      vertex -0.298458 0.343842 0
    endloop
  endfacet
  facet normal 0 1 0
    outer loop
      vertex 0.201542 0.343842 0.05
      vertex 0.201542 0.343842 0
      vertex -0.298458 0.343842 0
    endloop
  endfacet
  facet normal -1 0 0
    outer loop
      vertex 0.201542 0.343842 0.05
      vertex 0.201542 0.507924 0.05
      vertex 0.201542 0.343842 0
    endloop
  endfacet
  facet normal -1 0 0
    outer loop
      vertex 0.201542 0.507924 0.05
      vertex 0.201542 0.507924 0
      vertex 0.201542 0.343842 0
    endloop
  endfacet
  facet normal 0 1 0
    outer loop
      vertex 0.201542 0.507924 0.05
      vertex 1 0.507924 0.05
      vertex 0.201542 0.507924 0
    endloop
  endfacet
  facet normal 0 1 0
    outer loop
      vertex 1 0.507924 0.05
      vertex 1 0.507924 0
      vertex 0.201542 0.507924 0
    endloop
  endfacet
  facet normal -1 0 0
    outer loop
      vertex 1 0.507924 0.05
      vertex 1 1.00792 0.05
      vertex 1 0.507924 0
    endloop
  endfacet
  facet normal -1 0 0
    outer loop
      vertex 1 1.00792 0.05
      vertex 1 1.00792 0
      vertex 1 0.507924 0
    endloop
  endfacet
  facet normal -1 0 0
    outer loop
      vertex 1.02172 -0.861734 0.05
      vertex 1.02172 -0.361734 0.05
      vertex 1.02172 -0.861734 0
    endloop
  endfacet
  facet normal -1 0 0
    outer loop
      vertex 1.02172 -0.361734 0.05
      vertex 1.02172 -0.361734 0
      vertex 1.02172 -0.861734 0
    endloop
  endfacet
  facet normal 0 1 0
    outer loop
      vertex 0.786601 1.70792 0.05
      vertex 2.0866 1.70792 0.05
      vertex 0.786601 1.70792 0
    endloop
  endfacet
  facet normal 0 1 0
    outer loop
      vertex 2.0866 1.70792 0.05
      vertex 2.0866 1.70792 0
      vertex 0.786601 1.70792 0
    endloop
  endfacet
  facet normal 1 0 0
    outer loop
      vertex 0.321724 -0.361734 0.05
      vertex 0.321724 -0.861734 0.05
      vertex 0.321724 -0.361734 0
    endloop
  endfacet
  facet normal 1 0 0
    outer loop
      vertex 0.321724 -0.861734 0.05
      vertex 0.321724 -0.861734 0
      vertex 0.321724 -0.361734 0
    endloop
  endfacet
  facet normal 1 0 0
    outer loop
      vertex 1.6866 -1.04208 0.05
      vertex 1.6866 -1.79208 0.05
      vertex 1.6866 -1.04208 0
    endloop
  endfacet
  facet normal 1 0 0
    outer loop
      vertex 1.6866 -1.79208 0.05
      vertex 1.6866 -1.79208 0
      vertex 1.6866 -1.04208 0
    endloop
  endfacet
  facet normal 0 -1 0
    outer loop
      vertex 1.02172 -0.361734 0.05
      vertex 0.321724 -0.361734 0.05
      vertex 1.02172 -0.361734 0
    endloop
  endfacet
  facet normal 0 -1 0
    outer loop
      vertex 0.321724 -0.361734 0.05
      vertex 0.321724 -0.361734 0
      vertex 1.02172 -0.361734 0
    endloop
  endfacet
  facet normal 1 0 0
    outer loop
      vertex 2.0866 1.70792 0.05
      vertex 2.0866 -0.0420761 0.05
      vertex 2.0866 1.70792 0
    endloop
  endfacet
  facet normal 1 0 0
    outer loop
      vertex 2.0866 -0.0420761 0.05
      vertex 2.0866 -0.0420761 0
      vertex 2.0866 1.70792 0
    endloop
  endfacet
  facet normal -1 0 0
    outer loop
      vertex 1.7866 -0.361734 0.05
      vertex 1.7866 0.138266 0.05
      vertex 1.7866 -0.361734 0
    endloop
  endfacet
  facet normal -1 0 0
    outer loop
      vertex 1.7866 0.138266 0.05
      vertex 1.7866 0.138266 0
      vertex 1.7866 -0.361734 0
    endloop
  endfacet
  facet normal 1 0 0
    outer loop
      vertex 1.0866 0.138266 0.05
      vertex 1.0866 -0.361734 0.05
      vertex 1.0866 0.138266 0
    endloop
  endfacet
  facet normal 1 0 0
    outer loop
      vertex 1.0866 -0.361734 0.05
      vertex 1.0866 -0.361734 0
      vertex 1.0866 0.138266 0
    endloop
  endfacet
  facet normal -1 0 0
    outer loop
      vertex -0.113399 -1.79208 0.05
      vertex -0.113399 -0.292076 0.05
      vertex -0.113399 -1.79208 0
    endloop
  endfacet
  facet normal -1 0 0
    outer loop
      vertex -0.113399 -0.292076 0.05
      vertex -0.113399 -0.292076 0
      vertex -0.113399 -1.79208 0
    endloop
  endfacet
  facet normal 0 -1 0
    outer loop
      vertex 1.7866 0.138266 0.05
      vertex 1.0866 0.138266 0.05
      vertex 1.7866 0.138266 0
    endloop
  endfacet
  facet normal 0 -1 0
    outer loop
      vertex 1.0866 0.138266 0.05
      vertex 1.0866 0.138266 0
      vertex 1.7866 0.138266 0
    endloop
  endfacet
  facet normal 0 -1 0
    outer loop
      vertex 1.6866 -1.79208 0.05
      vertex -0.113399 -1.79208 0.05
      vertex 1.6866 -1.79208 0
    endloop
  endfacet
  facet normal 0 -1 0
    outer loop
      vertex -0.113399 -1.79208 0.05
      vertex -0.113399 -1.79208 0
      vertex 1.6866 -1.79208 0
    endloop
  endfacet
  facet normal 0 -1 0
    outer loop
      vertex 2.8866 -1.04208 0.05
      vertex 1.6866 -1.04208 0.05
      vertex 2.8866 -1.04208 0
    endloop
  endfacet
  facet normal 0 -1 0
    outer loop
      vertex 1.6866 -1.04208 0.05
      vertex 1.6866 -1.04208 0
      vertex 2.8866 -1.04208 0
    endloop
  endfacet
  facet normal 1 0 0
    outer loop
      vertex 2.8866 -0.0420761 0.05
      vertex 2.8866 -1.04208 0.05
      vertex 2.8866 -0.0420761 0
    endloop
  endfacet
  facet normal 1 0 0
    outer loop
      vertex 2.8866 -1.04208 0.05
      vertex 2.8866 -1.04208 0
      vertex 2.8866 -0.0420761 0
    endloop
  endfacet
  facet normal 0 1 0
    outer loop
      vertex 2.0866 -0.0420761 0.05
      vertex 2.8866 -0.0420761 0.05
      vertex 2.0866 -0.0420761 0
    endloop
  endfacet
  facet normal 0 1 0
    outer loop
      vertex 2.8866 -0.0420761 0.05
      vertex 2.8866 -0.0420761 0
      vertex 2.0866 -0.0420761 0
    endloop
  endfacet
  facet normal -1 0 0
    outer loop
      vertex 0.786601 1.00792 0.05
      vertex 0.786601 1.70792 0.05
      vertex 0.786601 1.00792 0
    endloop
  endfacet
  facet normal -1 0 0
    outer loop
      vertex 0.786601 1.70792 0.05
      vertex 0.786601 1.70792 0
      vertex 0.786601 1.00792 0
    endloop
  endfacet
  facet normal 0 -1 0
    outer loop
      vertex 1 1.00792 0.05
      vertex 0.786601 1.00792 0.05
      vertex 1 1.00792 0
    endloop
  endfacet
  facet normal 0 -1 0
    outer loop
      vertex 0.786601 1.00792 0.05
      vertex 0.786601 1.00792 0
      vertex 1 1.00792 0
    endloop
  endfacet
endsolid Mesh
